<?xml version="1.0" encoding="UTF-8" standalone="no"?>
<!-- Created with Inkscape (http://www.inkscape.org/) -->

<svg
   width="115.46136mm"
   height="115.46136mm"
   viewBox="0 0 115.46136 115.46136"
   version="1.1"
   id="svg1"
   xml:space="preserve"
   inkscape:version="1.4.2 (ebf0e940d0, 2025-05-08)"
   sodipodi:docname="logo_alt (Copy).svg"
   xmlns:inkscape="http://www.inkscape.org/namespaces/inkscape"
   xmlns:sodipodi="http://sodipodi.sourceforge.net/DTD/sodipodi-0.dtd"
   xmlns="http://www.w3.org/2000/svg"
   xmlns:svg="http://www.w3.org/2000/svg"
   xmlns:sketch="http://www.bohemiancoding.com/sketch/ns"><sodipodi:namedview
     id="namedview1"
     pagecolor="#ffffff"
     bordercolor="#000000"
     borderopacity="0.25"
     inkscape:showpageshadow="2"
     inkscape:pageopacity="0.0"
     inkscape:pagecheckerboard="0"
     inkscape:deskcolor="#d1d1d1"
     inkscape:document-units="mm"
     inkscape:zoom="0.76078844"
     inkscape:cx="314.14778"
     inkscape:cy="266.82845"
     inkscape:window-width="1920"
     inkscape:window-height="1011"
     inkscape:window-x="0"
     inkscape:window-y="0"
     inkscape:window-maximized="1"
     inkscape:current-layer="layer1" /><defs
     id="defs1" /><g
     inkscape:label="Layer 1"
     inkscape:groupmode="layer"
     id="layer1"
     transform="translate(-21.909836,-77.901642)"><circle
       style="fill:#3eb84f;fill-opacity:1;stroke:none;stroke-width:0.323164"
       id="path1"
       cx="79.640518"
       cy="135.63232"
       r="57.730682" /><path
       d="m 81.725586,102.27121 h -4.17014 c -2.301917,0 -4.170137,1.86822 -4.170137,4.17013 v 58.38196 c 0,2.30191 1.86822,4.17013 4.170137,4.17013 h 4.17014 c 2.301914,0 4.17014,-1.86822 4.17014,-4.17013 v -58.38196 c 0,-2.30191 -1.868226,-4.17013 -4.17014,-4.17013 z m 20.850694,33.36111 h -4.170131 c -2.301922,0 -4.170149,1.86822 -4.170149,4.17014 v 25.02084 c 0,2.30191 1.868227,4.17013 4.170149,4.17013 h 4.170131 c 2.30192,0 4.17014,-1.86822 4.17014,-4.17013 v -25.02084 c 0,-2.30192 -1.86822,-4.17014 -4.17014,-4.17014 z M 60.874891,121.03683 h -4.17014 c -2.301917,0 -4.17014,1.86823 -4.17014,4.17014 v 39.61633 c 0,2.30191 1.868223,4.17013 4.17014,4.17013 h 4.17014 c 2.301917,0 4.17014,-1.86822 4.17014,-4.17013 v -39.61633 c 0,-2.30191 -1.868223,-4.17014 -4.17014,-4.17014 z"
       id="stats"
       sketch:type="MSShapeGroup"
       style="fill:#0d1117;fill-opacity:1;fill-rule:evenodd;stroke:none;stroke-width:2.08507" /></g></svg>
