<?xml version="1.0" encoding="UTF-8" standalone="no"?>
<!-- Created with Inkscape (http://www.inkscape.org/) -->

<svg
   width="115.46136mm"
   height="115.46136mm"
   viewBox="0 0 115.46136 115.46136"
   version="1.1"
   id="svg1"
   xml:space="preserve"
   xmlns="http://www.w3.org/2000/svg"
   xmlns:svg="http://www.w3.org/2000/svg"><defs
     id="defs1" /><g
     id="layer1"
     transform="translate(-21.909836,-77.901642)"><path
       id="path1"
       style="fill:#3eb84f;stroke-width:0.264583"
       d="m 79.640679,77.901642 c -31.883772,0 -57.73084,25.847068 -57.730843,57.730848 -10e-7,31.88377 25.847069,57.73032 57.730843,57.73032 31.883771,0 57.730331,-25.84655 57.730331,-57.73032 -1e-5,-31.88378 -25.84656,-57.730848 -57.730331,-57.730848 z m -2.085144,24.369568 h 4.170288 c 2.301914,0 4.169771,1.86838 4.169771,4.17029 v 58.38197 c 0,2.30191 -1.867857,4.16977 -4.169771,4.16977 h -4.170288 c -2.301917,0 -4.170288,-1.86786 -4.170288,-4.16977 V 106.4415 c 0,-2.30191 1.868371,-4.17029 4.170288,-4.17029 z m -20.850924,18.76578 h 4.170288 c 2.301917,0 4.170289,1.86786 4.170289,4.16977 v 39.61671 c 0,2.30191 -1.868372,4.16977 -4.170289,4.16977 h -4.170288 c -2.301917,0 -4.169771,-1.86786 -4.169771,-4.16977 v -39.61671 c 0,-2.30191 1.867854,-4.16977 4.169771,-4.16977 z m 41.701331,14.5955 h 4.170288 c 2.30192,0 4.17029,1.86785 4.17029,4.16977 v 25.02121 c 0,2.30191 -1.86837,4.16977 -4.17029,4.16977 h -4.170288 c -2.301922,0 -4.169771,-1.86786 -4.169771,-4.16977 v -25.02121 c 0,-2.30192 1.867849,-4.16977 4.169771,-4.16977 z" /></g></svg>
